<svg width="262" height="20" viewBox="0 0 262 20" fill="#0000" xmlns="http://www.w3.org/2000/svg" xmlns:xlink="http://www.w3.org/1999/xlink">
<g id="Repeat group 1_inner" data-figma-trr="l3u1-0f">
<path d="M0.258689 13.4859C0.0481717 13.9964 0.291428 14.581 0.802017 14.7915C1.31261 15.002 1.89718 14.7588 2.10769 14.2482L1.18319 13.867L0.258689 13.4859ZM1.22131 13.7746L2.14581 14.1558L2.22717 13.9584L2.22087 13.7451L1.22131 13.7746ZM1.20874 13.3486L2.2083 13.3191L2.20517 13.2131L2.1799 13.1102L1.20874 13.3486ZM1.07794 12.8157L0.253441 12.2499L1.15385e-06 12.6192L0.106777 13.0541L1.07794 12.8157ZM1.41644 12.3225L2.24094 12.8884L2.54749 12.4417L2.34078 11.941L1.41644 12.3225ZM1.19178 11.7783L0.239084 11.4744L0.128099 11.8223L0.267442 12.1599L1.19178 11.7783ZM1.3535 11.2714L2.3062 11.5753L2.35758 11.4142L2.35316 11.2452L1.3535 11.2714ZM1.33974 10.7451L0.542691 10.1412L0.330911 10.4207L0.340078 10.7712L1.33974 10.7451ZM1.70124 10.268L2.49828 10.8719L2.78398 10.4948L2.67367 10.0348L1.70124 10.268ZM1.57083 9.72415L0.584884 9.89119L0.590526 9.92449L0.5984 9.95733L1.57083 9.72415ZM1.47834 9.17821L0.594389 8.71063L0.4357 9.01063L0.492391 9.34525L1.47834 9.17821ZM1.73437 8.69418L0.99616 8.01961L0.910084 8.11381L0.850421 8.2266L1.73437 8.69418ZM2.12133 8.27072L2.85954 8.94528L3.18316 8.59113L3.10946 8.11709L2.12133 8.27072ZM2.0198 7.61768L2.13443 6.62427L0.82993 6.47374L1.03167 7.77131L2.0198 7.61768ZM2.59793 7.68439L3.11664 6.82945L2.92974 6.71605L2.71256 6.69099L2.59793 7.68439ZM2.96394 7.90646L3.82964 7.4059L3.7015 7.18429L3.48265 7.05151L2.96394 7.90646ZM3.22419 8.35656L2.35849 8.85712L2.43081 8.9822L2.53559 9.0817L3.22419 8.35656ZM3.61306 8.72584L4.5487 8.3729L4.46782 8.15849L4.30166 8.0007L3.61306 8.72584ZM3.79935 9.21972L2.86371 9.57266L2.90328 9.67756L2.96511 9.7711L3.79935 9.21972ZM4.08612 9.65359L4.9429 9.13791L4.93201 9.11982L4.92037 9.1022L4.08612 9.65359ZM4.3548 10.1L5.26184 9.67895L5.23925 9.63029L5.21158 9.58432L4.3548 10.1ZM4.57381 10.5718L3.66677 10.9929L3.67622 11.0132L3.68659 11.0331L4.57381 10.5718ZM4.81404 11.0338L5.73475 10.6436L5.7194 10.6074L5.70126 10.5725L4.81404 11.0338ZM5.01682 11.5122L4.09611 11.9025L4.10379 11.9206L4.11218 11.9384L5.01682 11.5122ZM5.23867 11.9832L6.23583 11.9078L6.22193 11.7239L6.14332 11.557L5.23867 11.9832ZM5.28252 12.5633L4.28536 12.6387L4.36296 13.6653L5.38693 13.5578L5.28252 12.5633ZM5.84367 12.5044L5.94808 13.4989L6.60248 13.4302L6.79834 12.802L5.84367 12.5044ZM6.00414 11.9897L5.4555 11.1536L5.15607 11.3501L5.04947 11.692L6.00414 11.9897ZM6.47701 11.6794L7.02566 12.5154L7.14116 12.4396L7.23178 12.3354L6.47701 11.6794ZM6.82266 11.2817L7.57743 11.9377L7.72173 11.7716L7.78304 11.5604L6.82266 11.2817ZM6.97333 10.7625L6.08856 10.2965L6.04125 10.3863L6.01295 10.4838L6.97333 10.7625ZM7.21795 10.2981L6.3439 9.81223L6.33843 9.82207L6.33318 9.83203L7.21795 10.2981ZM7.47497 9.83567L7.04198 8.93427L6.75538 9.07194L6.60092 9.34983L7.47497 9.83567ZM7.99558 9.58559L8.42858 10.487L8.6415 10.3847L8.78615 10.198L7.99558 9.58559ZM8.31158 9.17765L7.87925 8.27593L7.6659 8.37822L7.52101 8.56527L8.31158 9.17765ZM8.73593 8.97419L8.4832 8.00665L8.39024 8.03094L8.30361 8.07247L8.73593 8.97419ZM9.26186 8.83681L10.0961 8.28536L9.70147 7.68842L9.00913 7.86927L9.26186 8.83681ZM9.57654 9.31283L10.5601 9.49339L10.6328 9.09731L10.4107 8.76138L9.57654 9.31283ZM9.46308 9.93089L8.47951 9.75033L8.36561 10.3708L8.87652 10.7408L9.46308 9.93089ZM9.96436 10.2939L10.9628 10.2387L10.9365 9.76328L10.5509 9.48402L9.96436 10.2939ZM9.99456 10.8393L10.9936 10.7951L10.993 10.7841L9.99456 10.8393ZM10.0189 11.3882L9.01986 11.4325L9.0267 11.5868L9.07977 11.7318L10.0189 11.3882ZM10.1977 11.8768L9.25856 12.2204L9.31277 12.3686L9.40998 12.4929L10.1977 11.8768ZM10.5323 12.3046L9.74456 12.9207L9.77508 12.9597L9.80931 12.9955L10.5323 12.3046ZM10.9213 12.7117L11.8838 12.4405L11.8163 12.2008L11.6442 12.0208L10.9213 12.7117ZM11.0629 13.2142L12.0325 12.9697L12.0291 12.9563L12.0254 12.943L11.0629 13.2142ZM11.1908 13.7216L10.2212 13.9661L10.2433 14.0539L10.2809 14.1364L11.1908 13.7216ZM11.4065 14.1947L12.3607 13.8954L12.3421 13.8363L12.3164 13.7799L11.4065 14.1947ZM11.5624 14.6917L10.6082 14.991L10.6413 15.0965L10.6967 15.1923L11.5624 14.6917ZM11.8229 15.1423L10.9572 15.6428L10.9668 15.6595L10.9771 15.6757L11.8229 15.1423ZM12.0918 15.5687L11.246 16.1021L11.3588 16.2811L11.5345 16.399L12.0918 15.5687ZM12.3569 15.7466L11.7995 16.5769L12.4534 17.0159L13.0334 16.4831L12.3569 15.7466ZM12.7609 15.3755L13.4374 16.1119L13.5503 16.0082L13.627 15.8755L12.7609 15.3755ZM13.0283 14.9125L13.8943 15.4125L13.9132 15.3797L13.9296 15.3456L13.0283 14.9125ZM13.2542 14.4423L14.1555 14.8754L14.2971 14.5808L14.2374 14.2595L13.2542 14.4423ZM13.1398 13.827L12.194 13.5022L12.1085 13.7511L12.1566 14.0098L13.1398 13.827ZM13.3087 13.3349L12.7041 12.5384L12.4617 12.7224L12.3629 13.0102L13.3087 13.3349ZM13.7933 12.9671L14.3979 13.7636L14.6057 13.6059L14.71 13.3668L13.7933 12.9671ZM14.0015 12.4896L14.9182 12.8892L14.9643 12.7835L14.9851 12.67L14.0015 12.4896ZM14.0969 11.9693L15.0805 12.1497L15.0944 12.0741L15.0965 11.9973L14.0969 11.9693ZM14.1123 11.4194L13.2081 10.9923L13.1186 11.1819L13.1127 11.3915L14.1123 11.4194ZM14.3352 10.9476L15.2394 11.3748L15.2425 11.3681L14.3352 10.9476ZM14.5542 10.475L15.4615 10.8955L15.4782 10.8594L15.492 10.8221L14.5542 10.475ZM14.7346 9.98767L15.6724 10.3348L15.6914 10.2836L15.7046 10.2306L14.7346 9.98767ZM14.8618 9.47985L14.1389 8.7889L13.9561 8.98019L13.8918 9.23688L14.8618 9.47985ZM15.2523 9.07124L15.9753 9.76219L16.3263 9.39488L16.2367 8.89476L15.2523 9.07124ZM15.1451 8.4729L14.5583 7.66316L14.05 8.0315L14.1608 8.64938L15.1451 8.4729ZM15.6476 8.10872L16.2344 8.91846L16.4269 8.77895L16.5361 8.56773L15.6476 8.10872ZM15.8872 7.64512L16.7756 8.10413L16.8742 7.91332L16.8857 7.69886L15.8872 7.64512ZM15.9166 7.09782L15.0041 6.68881L14.928 6.85845L14.9181 7.04408L15.9166 7.09782ZM16.1295 6.62287L15.2633 6.12319L15.2378 6.16735L15.217 6.21386L16.1295 6.62287ZM16.3915 6.16864L15.547 5.63309L15.5358 5.6508L15.5253 5.66896L16.3915 6.16864ZM16.6733 5.72425L17.5178 6.25979L17.6941 5.9818L17.6708 5.65344L16.6733 5.72425ZM16.6319 5.14024L16.0069 4.35959L15.5972 4.68757L15.6344 5.21104L16.6319 5.14024ZM17.0892 4.77413L17.7141 5.55478L17.969 5.35078L18.0543 5.03573L17.0892 4.77413ZM17.2267 4.2667L18.1919 4.5283L18.2181 4.4315L18.2246 4.33141L17.2267 4.2667ZM17.2629 3.7091L16.5721 2.98604L16.2902 3.25535L16.265 3.6444L17.2629 3.7091ZM17.6639 3.32594L18.3547 4.049L18.6306 3.78539L18.6608 3.40497L17.6639 3.32594ZM17.7083 2.76576L16.9982 2.06171L16.7404 2.32173L16.7115 2.68672L17.7083 2.76576ZM18.0926 2.37812L18.8028 3.08216L18.9891 2.89424L19.0581 2.63876L18.0926 2.37812ZM18.2349 1.85112L17.6343 1.05156L17.3592 1.25824L17.2695 1.59048L18.2349 1.85112ZM18.6803 1.51657L19.5728 1.0655L19.0343 -5.55557e-07L18.0797 0.717006L18.6803 1.51657ZM18.8848 1.9212L17.9923 2.37226L18.0048 2.39694L18.0186 2.42089L18.8848 1.9212ZM19.1674 2.41101L20.1623 2.5113L20.1946 2.19056L20.0336 1.91132L19.1674 2.41101ZM19.1142 2.93885L20.0762 3.21187L20.1003 3.12696L20.1091 3.03914L19.1142 2.93885ZM18.9658 3.46149L18.0038 3.18846L17.9481 3.38487L17.9738 3.5874L18.9658 3.46149ZM19.0318 3.9812L20.0267 3.88073L20.0254 3.86799L20.0238 3.85528L19.0318 3.9812ZM19.0843 4.50119L20.0666 4.68832L20.0939 4.54544L20.0792 4.40073L19.0843 4.50119ZM18.9852 5.0212L18.0029 4.83407L17.9401 5.1637L18.0889 5.46448L18.9852 5.0212ZM19.2427 5.54187L20.2427 5.54165L20.2427 5.30802L20.1391 5.09859L19.2427 5.54187ZM19.2428 6.06219L20.0806 6.60816L20.2429 6.35917L20.2428 6.06197L19.2428 6.06219ZM18.9049 6.58082L18.0671 6.03484L17.7934 6.4547L17.966 6.92519L18.9049 6.58082ZM19.0959 7.10161L20.0901 7.20936L20.1153 6.97682L20.0347 6.75723L19.0959 7.10161ZM19.0396 7.62087L18.0454 7.51312L18.0348 7.61167L18.0436 7.7104L19.0396 7.62087ZM19.0863 8.14065L20.0313 8.46797L20.1016 8.26503L20.0823 8.05111L19.0863 8.14065ZM18.9062 8.6608L17.9612 8.33348L17.8011 8.79582L18.0678 9.206L18.9062 8.6608ZM19.2454 9.1825L20.2236 9.39056L20.3098 8.98494L20.0838 8.6373L19.2454 9.1825ZM19.1352 9.70088L18.1571 9.49283L18.1305 9.61789L18.1362 9.74562L19.1352 9.70088ZM19.1585 10.2215L20.0317 10.7089L20.1702 10.4607L20.1575 10.1768L19.1585 10.2215ZM18.8677 10.7424L17.9946 10.255L17.8123 10.5815L17.889 10.9476L18.8677 10.7424ZM18.9769 11.2629L17.9982 11.4681L18.0085 11.5176L18.0238 11.5658L18.9769 11.2629ZM19.1409 11.7791L20.1031 12.0514L20.1849 11.7624L20.0939 11.4763L19.1409 11.7791ZM18.9925 12.3036L18.0303 12.0314L17.9543 12.3002L18.0285 12.5695L18.9925 12.3036ZM19.1346 12.8186L18.1706 13.0845L18.1883 13.1486L18.2143 13.2098L19.1346 12.8186ZM19.3444 13.3123L20.2941 13.6255L20.4121 13.2678L20.2647 12.9211L19.3444 13.3123ZM19.1554 13.8853L18.2057 13.572L17.8997 14.4997L18.82 14.8274L19.1554 13.8853ZM19.7088 14.0823L19.3734 15.0244L19.744 15.1563L20.1051 15.0004L19.7088 14.0823ZM20.2055 13.868L20.6018 14.7861L20.6683 14.7574L20.73 14.7194L20.2055 13.868ZM20.6529 13.5923L21.1775 14.4437L21.4118 14.2993L21.5392 14.0554L20.6529 13.5923ZM20.9248 13.072L20.9339 12.072L20.322 12.0665L20.0385 12.6089L20.9248 13.072ZM21.5754 13.0779L21.5663 14.0779L22.1688 14.0834L22.4552 13.5532L21.5754 13.0779ZM21.8466 12.5757L21.1375 11.8706L21.0355 11.9732L20.9668 12.1005L21.8466 12.5757ZM22.2154 12.2048L21.7358 11.3273L21.6085 11.3969L21.5063 11.4997L22.2154 12.2048ZM22.6785 11.9517L23.1582 12.8291L23.3641 12.7166L23.4984 12.5242L22.6785 11.9517ZM22.989 11.5069L22.5515 10.6077L22.3179 10.7214L22.1691 10.9344L22.989 11.5069ZM23.4682 11.2738L23.0847 10.3503L23.0573 10.3616L23.0307 10.3746L23.4682 11.2738ZM23.9683 11.0661L24.3518 11.9897L24.6933 11.8479L24.8604 11.5181L23.9683 11.0661ZM24.2269 10.5557L23.803 9.65003L23.4907 9.7962L23.3349 10.1038L24.2269 10.5557ZM24.711 10.3292L25.1349 11.2349L25.1762 11.2156L25.2155 11.1926L24.711 10.3292ZM25.1638 10.0646L25.6683 10.9281L25.8327 10.832L25.9503 10.6822L25.1638 10.0646ZM25.4956 9.64211L24.749 8.97678L24.7283 9.00003L24.7091 9.02453L25.4956 9.64211ZM25.8689 9.22316L26.0631 8.2422L25.5026 8.13123L25.1224 8.55783L25.8689 9.22316ZM26.4732 9.34279L26.279 10.3238L26.3404 10.3359L26.4027 10.3403L26.4732 9.34279ZM26.9339 9.37536L27.6171 8.64506L27.3581 8.40285L27.0045 8.37785L26.9339 9.37536ZM27.3052 9.72259L28.2441 9.37848L28.1622 9.15494L27.9883 8.9923L27.3052 9.72259ZM27.4896 10.2259L26.5507 10.57L26.6597 10.8674L26.9199 11.0478L27.4896 10.2259ZM27.946 10.5423L28.8366 10.0874L28.7223 9.8636L28.5157 9.72042L27.946 10.5423ZM28.1847 11.0095L29.1201 10.6559L29.1005 10.604L29.0753 10.5547L28.1847 11.0095ZM28.3758 11.515L27.4404 11.8687L27.6059 12.3064L28.048 12.4598L28.3758 11.515ZM28.9715 11.7217L29.8253 11.201L29.6384 10.8946L29.2993 10.777L28.9715 11.7217ZM29.2423 12.1656L30.12 11.6864L30.1085 11.6654L30.096 11.6449L29.2423 12.1656ZM29.4944 12.6275L30.4613 12.3722L30.4303 12.2548L30.3722 12.1483L29.4944 12.6275ZM29.6382 13.172L28.6714 13.4273L28.7577 13.7545L29.025 13.9619L29.6382 13.172ZM30.0636 13.5023L30.8096 12.8364L30.7489 12.7683L30.6768 12.7124L30.0636 13.5023ZM30.41 13.8904L31.1933 13.2687L31.1753 13.246L31.156 13.2244L30.41 13.8904ZM30.733 14.2974L29.9498 14.9191L30.008 14.9925L30.079 15.0538L30.733 14.2974ZM31.1331 14.6433L32.1139 14.4483L32.047 14.1115L31.7872 13.8869L31.1331 14.6433ZM31.2479 15.2203L30.2671 15.4153L30.3764 15.9654L30.9029 16.1589L31.2479 15.2203ZM31.8149 15.4287L32.6761 14.9205L32.4948 14.6132L32.1599 14.4901L31.8149 15.4287ZM32.0819 15.8813L33.062 15.6824L33.0286 15.5177L32.9432 15.373L32.0819 15.8813ZM32.1994 16.4601L31.2194 16.659L31.3214 17.1617L31.7892 17.3721L32.1994 16.4601ZM32.7264 16.6971L33.3826 15.9426L33.2712 15.8457L33.1366 15.7851L32.7264 16.6971ZM33.123 17.0421L34.1099 16.8809L34.0517 16.5245L33.7793 16.2876L33.123 17.0421ZM33.2212 17.6428L32.2342 17.8041L32.3435 18.4729L33.0052 18.6192L33.2212 17.6428ZM33.8545 17.7829L34.5036 17.0222L34.3139 16.8604L34.0705 16.8065L33.8545 17.7829ZM34.1586 18.0423L33.5096 18.8031L33.6594 18.9309L33.8465 18.9924L34.1586 18.0423ZM34.6126 18.1915L34.3005 19.1415L34.6592 19.2594L35.0063 19.1107L34.6126 18.1915ZM35.1115 17.9778L35.5052 18.8971L35.6732 18.8251L35.8049 18.6984L35.1115 17.9778ZM35.4949 17.6088L36.1883 18.3294L36.3183 18.2043L36.3964 18.0418L35.4949 17.6088ZM35.7342 17.1107L34.9446 16.4971L34.879 16.5814L34.8328 16.6778L35.7342 17.1107ZM36.0512 16.7029L35.379 15.9625L35.3148 16.0208L35.2616 16.0892L36.0512 16.7029ZM36.4397 16.3501L37.1119 17.0904L37.1595 17.0473L37.2011 16.9984L36.4397 16.3501ZM36.7765 15.9546L37.5378 16.603L37.6471 16.4747L37.7083 16.3177L36.7765 15.9546ZM36.9729 15.4504L36.1754 14.8471L36.0916 14.9579L36.0412 15.0873L36.9729 15.4504ZM37.2858 15.0367L38.0834 15.64L38.0891 15.6324L38.0947 15.6247L37.2858 15.0367ZM37.5911 14.6167L36.8444 13.9516L36.8114 13.9886L36.7822 14.0288L37.5911 14.6167ZM37.9382 14.227L37.3172 13.4432L37.2492 13.4971L37.1915 13.5619L37.9382 14.227ZM38.3609 13.8921L38.9819 14.6759L39.1251 14.5624L39.219 14.4057L38.3609 13.8921ZM38.6291 13.4441L37.9516 12.7085L37.8453 12.8065L37.771 12.9305L38.6291 13.4441ZM39.0195 13.0845L39.697 13.82L39.7588 13.7631L39.8103 13.6966L39.0195 13.0845ZM39.3381 12.6729L40.1289 13.285L40.1988 13.1947L40.2466 13.0909L39.3381 12.6729ZM39.5598 12.1911L38.7142 11.6571L38.6789 11.7131L38.6513 11.7731L39.5598 12.1911ZM39.8381 11.7503L40.6836 12.2842L40.7274 12.2149L40.7593 12.1394L39.8381 11.7503ZM40.0463 11.2573L39.2733 10.623L39.1814 10.7349L39.1251 10.8683L40.0463 11.2573ZM40.3782 10.8529L40.0116 9.92253L39.7699 10.0178L39.6051 10.2186L40.3782 10.8529ZM40.9428 10.6304L41.3095 11.5608L41.5291 11.4742L41.6869 11.2986L40.9428 10.6304ZM41.2883 10.2458L41.3043 9.24591L40.8487 9.2386L40.5442 9.57761L41.2883 10.2458ZM41.479 10.2488L42.4274 9.93166L42.2029 9.26033L41.4951 9.24897L41.479 10.2488ZM41.6421 10.7364L40.6937 11.0536L40.7168 11.1224L40.7495 11.1872L41.6421 10.7364ZM41.8763 11.2003L40.9836 11.6511L40.9891 11.6617L41.8763 11.2003ZM42.1174 11.6639L41.2302 12.1253L41.2658 12.1936L41.3114 12.2557L42.1174 11.6639ZM42.4329 12.0935L43.3555 11.7079L43.3095 11.5979L43.2389 11.5017L42.4329 12.0935ZM42.6323 12.5708L41.7097 12.9564L41.717 12.974L41.725 12.9913L42.6323 12.5708ZM42.8499 13.0404L41.9426 13.4608L42.0005 13.5857L42.0899 13.6903L42.8499 13.0404ZM43.1858 13.4333L44.0698 12.9658L44.018 12.8677L43.9459 12.7834L43.1858 13.4333ZM43.4291 13.8932L44.3543 13.5139L44.3358 13.4688L44.3131 13.4257L43.4291 13.8932ZM43.6495 14.431L42.7243 14.8103L42.9914 15.4618L43.6948 15.43L43.6495 14.431ZM44.3062 14.4012L44.7829 13.5222L44.5386 13.3897L44.261 13.4023L44.3062 14.4012ZM44.7316 14.6319L45.4509 13.9371L45.3438 13.8263L45.2083 13.7529L44.7316 14.6319ZM45.167 15.0826L44.4478 15.7774L45.0443 16.3948L45.7449 15.8988L45.167 15.0826ZM45.6877 14.714L46.0355 13.7764L45.5407 13.5928L45.1099 13.8978L45.6877 14.714ZM46.2505 14.9228L45.9027 15.8603L46.5191 16.089L46.9734 15.6138L46.2505 14.9228ZM46.651 14.5038L46.4886 13.5171L46.159 13.5713L45.9281 13.8128L46.651 14.5038ZM47.1842 14.4161L47.3466 15.4028L47.5003 15.3775L47.6391 15.3066L47.1842 14.4161ZM47.6521 14.1771L48.1069 15.0677L48.2611 14.9889L48.3799 14.8629L47.6521 14.1771ZM48.0168 13.7901L47.4091 12.9959L47.3446 13.0453L47.289 13.1043L48.0168 13.7901ZM48.4294 13.4744L47.8999 12.626L47.8595 12.6513L47.8217 12.6802L48.4294 13.4744ZM48.8751 13.1962L49.4045 14.0446L49.5869 13.9307L49.7064 13.752L48.8751 13.1962ZM49.1737 12.7495L48.6685 11.8865L48.4701 12.0026L48.3423 12.1938L49.1737 12.7495ZM49.6328 12.4808L50.138 13.3438L50.2406 13.2836L50.3263 13.2011L49.6328 12.4808ZM50.0079 12.1196L49.3501 11.3664L49.3318 11.3824L49.3143 11.3992L50.0079 12.1196ZM50.4006 11.7766L49.8452 10.945L49.7915 10.9809L49.7429 11.0234L50.4006 11.7766ZM50.8429 11.4812L51.3983 12.3127L51.6146 12.1683L51.7331 11.9368L50.8429 11.4812ZM51.0912 10.996L50.6081 10.1204L50.3404 10.2681L50.201 10.5404L51.0912 10.996ZM51.5684 10.7327L52.0515 11.6083L52.3668 11.4343L52.4988 11.0992L51.5684 10.7327ZM51.7744 10.2097L51.2842 9.3381L50.9743 9.51239L50.844 9.84318L51.7744 10.2097ZM52.249 9.9428L52.7392 10.8144L52.8812 10.7345L52.9906 10.6136L52.249 9.9428ZM52.5979 9.55708L53.3395 10.2279L53.5084 10.0411L53.5688 9.79657L52.5979 9.55708ZM52.7418 8.97353L52.5443 7.99324L51.9227 8.11848L51.7709 8.73404L52.7418 8.97353ZM53.3557 8.84981L53.5533 9.8301L53.9841 9.74329L54.2115 9.36724L53.3557 8.84981ZM53.6331 8.39116L53.1415 7.52034L52.9131 7.64928L52.7774 7.87373L53.6331 8.39116ZM54.0887 8.13396L54.5803 9.00478L54.642 8.96992L54.6982 8.9267L54.0887 8.13396ZM54.4797 7.83328L55.0689 7.02531L54.4638 6.58404L53.8702 7.04054L54.4797 7.83328ZM54.8786 8.12421L55.8654 7.96198L55.7989 7.55767L55.4679 7.31624L54.8786 8.12421ZM54.9659 8.65506L55.9659 8.65561L55.966 8.57367L55.9527 8.49282L54.9659 8.65506ZM54.9656 9.17935L55.8283 9.68508L55.9655 9.45111L55.9656 9.17991L54.9656 9.17935ZM54.6614 9.69838L53.7987 9.19265L53.5423 9.62989L53.7434 10.0951L54.6614 9.69838ZM54.887 10.2205L55.8845 10.2919L55.9019 10.0481L55.805 9.8238L54.887 10.2205ZM54.8499 10.7401L55.8402 10.8789L55.8449 10.8453L55.8474 10.8114L54.8499 10.7401ZM54.7771 11.2591L53.7868 11.1203L53.7753 11.2021L53.7775 11.2848L54.7771 11.2591ZM54.7905 11.7795L55.7595 12.0265L55.7937 11.8923L55.7902 11.7539L54.7905 11.7795ZM54.6583 12.2983L53.6892 12.0514L53.5956 12.4188L53.7691 12.7559L54.6583 12.2983ZM54.927 12.8206L55.9161 12.9676L55.9634 12.6492L55.8162 12.363L54.927 12.8206ZM54.8497 13.34L53.8606 13.1929L53.8247 13.4343L53.9041 13.6651L54.8497 13.34ZM55.0273 13.8566L55.9275 14.2922L56.107 13.9212L55.973 13.5315L55.0273 13.8566ZM54.7729 14.3824L53.8728 13.9468L53.7314 14.239L53.7885 14.5585L54.7729 14.3824ZM54.8652 14.8985L53.8808 15.0746L53.8849 15.0975L53.8901 15.1202L54.8652 14.8985ZM54.9828 15.4159L54.0077 15.6375L54.2318 16.6235L55.2152 16.3885L54.9828 15.4159ZM55.5725 15.275L55.805 16.2476L56.1981 16.1536L56.4155 15.8129L55.5725 15.275ZM55.8582 14.8273L55.2344 14.0457L55.1046 14.1493L55.0152 14.2894L55.8582 14.8273ZM56.268 14.5002L56.8918 15.2819L56.9799 15.2115L57.0502 15.1233L56.268 14.5002ZM56.5911 14.0946L57.3733 14.7176L57.5162 14.5383L57.5666 14.3146L56.5911 14.0946ZM56.7248 13.5017L56.1051 12.7169L55.8272 12.9363L55.7493 13.2817L56.7248 13.5017ZM57.1374 13.1759L56.6415 12.3075L56.5764 12.3446L56.5176 12.3911L57.1374 13.1759ZM57.6042 12.9093L58.1 13.7777L58.1341 13.7583L58.1664 13.7363L57.6042 12.9093ZM58.0374 12.6148L58.5997 13.4417L58.7811 13.3184L58.8942 13.1305L58.0374 12.6148ZM58.3173 12.1498L57.7111 11.3545L57.5591 11.4703L57.4606 11.634L58.3173 12.1498ZM58.7322 11.8336L58.1509 11.0199L58.1383 11.0289L58.1259 11.0383L58.7322 11.8336ZM59.1549 11.5315L58.6395 10.6746L58.6057 10.6949L58.5736 10.7178L59.1549 11.5315ZM59.5975 11.2653L59.3266 10.3027L59.1973 10.3391L59.0821 10.4084L59.5975 11.2653ZM60.1825 11.1007L61.1177 10.7463L60.7932 9.89001L59.9116 10.1381L60.1825 11.1007ZM60.3961 11.6643L61.3804 11.8411L61.4293 11.5687L61.3312 11.31L60.3961 11.6643ZM60.2974 12.2141L59.3132 12.0373L59.2438 12.4234L59.4555 12.7537L60.2974 12.2141ZM60.6 12.6862L61.5866 12.5234L61.5531 12.3201L61.4419 12.1466L60.6 12.6862ZM60.6715 13.1198L59.6849 13.2826L59.9204 14.7102L61.1726 13.9852L60.6715 13.1198ZM61.0077 12.9251L61.5088 13.7905L61.5869 13.7453L61.6557 13.6868L61.0077 12.9251ZM61.3827 12.6062L62.0306 13.3678L62.2022 13.2219L62.2946 13.0165L61.3827 12.6062ZM61.5967 12.1304L61.0715 11.2795L60.8106 11.4405L60.6848 11.7201L61.5967 12.1304ZM62.0825 11.8306L62.6078 12.6815L62.8103 12.5565L62.9348 12.3536L62.0825 11.8306ZM62.3555 11.3856L61.537 10.8111L61.5193 10.8363L61.5032 10.8626L62.3555 11.3856ZM62.7151 10.8734L63.3994 10.1442L62.5589 9.35538L61.8966 10.2989L62.7151 10.8734ZM63.1884 11.3175L63.9328 10.6498L63.9041 10.6178L63.8727 10.5883L63.1884 11.3175ZM63.5446 11.7147L64.3372 11.1049L64.3142 11.075L64.289 11.0469L63.5446 11.7147ZM63.8765 12.146L64.8273 12.456L64.9908 11.9544L64.6691 11.5362L63.8765 12.146ZM63.6666 12.7899L62.7158 12.4799L62.5397 13.0201L62.9136 13.4479L63.6666 12.7899ZM64.0312 13.2072L64.9997 12.958L64.9405 12.728L64.7842 12.5491L64.0312 13.2072ZM64.1615 13.7136L63.1931 13.9628L63.2141 14.0445L63.2485 14.1216L64.1615 13.7136ZM64.3744 14.1899L65.3476 13.9599L65.3259 13.8681L65.2874 13.7819L64.3744 14.1899ZM64.4958 14.7037L63.5227 14.9337L63.6136 15.3185L63.943 15.537L64.4958 14.7037ZM65.0146 15.0479L64.4618 15.8812L64.9913 16.2324L65.5342 15.9023L65.0146 15.0479ZM65.5188 14.7413L66.0384 15.5957L66.2832 15.4468L66.412 15.1909L65.5188 14.7413ZM65.7654 14.2513L66.6587 14.701L66.6705 14.6774L66.6811 14.6533L65.7654 14.2513ZM65.9768 13.7699L65.0637 13.3621L65.0612 13.3679L65.9768 13.7699ZM66.1909 13.2905L65.34 12.7652L65.305 12.8219L65.2778 12.8828L66.1909 13.2905ZM66.4778 12.8258L67.3287 13.3511L67.4264 13.1928L67.4607 13.01L66.4778 12.8258ZM66.5754 12.3052L67.5583 12.4894L67.5863 12.3397L67.5686 12.1884L66.5754 12.3052ZM66.5111 11.7585L65.5173 11.6472L65.5045 11.7613L65.518 11.8753L66.5111 11.7585ZM66.569 11.2414L65.5863 11.0561L65.5794 11.0929L65.5752 11.1301L66.569 11.2414ZM66.6654 10.7303L67.6481 10.9156L67.6593 10.856L67.6633 10.7955L66.6654 10.7303ZM66.6994 10.2104L67.6973 10.2756L67.7055 10.1494L67.6821 10.0252L66.6994 10.2104ZM66.5988 9.67654L65.8202 9.04897L65.5306 9.40824L65.6161 9.86172L66.5988 9.67654ZM66.9868 9.19518L67.7653 9.82275L67.9594 9.58204L67.9837 9.27383L66.9868 9.19518ZM67.0277 8.676L68.0246 8.75465L68.0397 8.56414L67.9834 8.38151L67.0277 8.676ZM66.8616 8.13701L65.8932 7.88769L65.8228 8.1614L65.906 8.4315L66.8616 8.13701ZM66.9929 7.62731L67.9613 7.87663L67.986 7.78056L67.9914 7.68151L66.9929 7.62731ZM67.0211 7.10734L66.0384 6.9222L66.0261 6.98715L66.0226 7.05314L67.0211 7.10734ZM67.1177 6.59452L66.2107 6.17348L66.1581 6.28671L66.135 6.40939L67.1177 6.59452ZM67.3473 6.09985L68.2544 6.52089L68.4111 6.18332L68.3089 5.82544L67.3473 6.09985ZM67.1917 5.55465L66.3987 4.9455L66.092 5.34484L66.2301 5.82906L67.1917 5.55465ZM67.5615 5.07324L68.5592 5.00449L68.3776 2.36926L66.7685 4.46408L67.5615 5.07324ZM67.604 5.69003L66.6064 5.75878L66.6168 5.90929L66.6711 6.05004L67.604 5.69003ZM67.7901 6.1721L66.8571 6.53212L66.9348 6.73332L67.0884 6.88464L67.7901 6.1721ZM68.1898 6.56574L69.1296 6.22402L69.0524 6.01171L68.8915 5.8532L68.1898 6.56574ZM68.3682 7.05635L67.4284 7.39807L67.4726 7.51947L67.5461 7.62567L68.3682 7.05635ZM68.6728 7.49621L69.5834 7.0829L69.5462 7.00091L69.4949 6.92689L68.6728 7.49621ZM68.8885 7.97129L69.8744 7.80419L69.8527 7.6762L69.799 7.55798L68.8885 7.97129ZM68.9772 8.49492L69.9737 8.41076L69.9701 8.36907L69.9631 8.32782L68.9772 8.49492ZM69.0228 9.03462L68.0263 9.11878L68.045 9.33966L68.1552 9.53198L69.0228 9.03462ZM69.2847 9.49141L70.2837 9.53467L70.2963 9.24532L70.1522 8.99405L69.2847 9.49141ZM69.2601 10.0586L68.2611 10.0153L68.2369 10.5725L68.6983 10.8859L69.2601 10.0586ZM69.7808 10.4121L70.7627 10.223L70.6845 9.81705L70.3425 9.58481L69.7808 10.4121ZM69.8786 10.92L68.8966 11.1091L68.9795 11.5397L69.3524 11.7704L69.8786 10.92ZM70.3582 11.2167L69.8321 12.0671L70.3175 12.3674L70.8229 12.1022L70.3582 11.2167ZM70.8519 10.9576L71.3166 11.843L71.5022 11.7456L71.633 11.5819L70.8519 10.9576ZM71.1951 10.5282L70.8389 9.59377L70.5842 9.69087L70.414 9.90381L71.1951 10.5282ZM71.6988 10.3362L72.055 11.2706L72.2695 11.1888L72.4269 11.0217L71.6988 10.3362ZM72.0603 9.95226L71.3872 9.21267L71.3587 9.23866L71.3322 9.26677L72.0603 9.95226ZM72.4457 9.60149L71.9206 8.75047L71.8414 8.7993L71.7727 8.8619L72.4457 9.60149ZM72.892 9.3261L72.5053 8.40391L72.4333 8.43409L72.3669 8.47507L72.892 9.3261ZM73.3918 9.11648L73.7786 10.0387L73.9866 9.95141L74.1371 9.78328L73.3918 9.11648ZM73.7429 8.72416L73.0183 8.03497L73.0078 8.04601L72.9976 8.05736L73.7429 8.72416ZM74.1043 8.3441L74.8289 9.03328L74.9129 8.94504L74.9732 8.83922L74.1043 8.3441ZM74.3826 7.85574L73.9782 6.94119L73.6769 7.07442L73.5138 7.36062L74.3826 7.85574ZM74.8742 7.63836L74.5423 6.69502L74.5055 6.70799L74.4697 6.7238L74.8742 7.63836ZM75.3857 7.45841L75.7176 8.40175L75.7325 8.39651L75.7472 8.3908L75.3857 7.45841ZM75.87 7.27066L76.2315 8.20305L76.4675 8.11157L76.6315 7.91885L75.87 7.27066ZM76.2268 6.85158L76.3677 5.86156L75.8223 5.78392L75.4653 6.20339L76.2268 6.85158ZM76.7203 6.92184L77.4746 6.26528L77.23 5.98432L76.8612 5.93182L76.7203 6.92184ZM77.1097 7.36923L77.9862 7.85069L78.3222 7.23904L77.864 6.71267L77.1097 7.36923ZM76.8029 7.92774L75.9265 7.44628L75.7776 7.71726L75.8077 8.02497L76.8029 7.92774ZM76.8533 8.44392L75.8581 8.54115L75.8851 8.81771L76.0509 9.04069L76.8533 8.44392ZM77.2263 8.94534L78.1821 9.23914L78.3309 8.75499L78.0287 8.34856L77.2263 8.94534ZM77.0637 9.47418L76.1078 9.18038L76.0251 9.44962L76.095 9.72246L77.0637 9.47418ZM77.1954 9.98778L78.1767 10.1801L78.2201 9.95835L78.164 9.73951L77.1954 9.98778ZM77.0922 10.5142L76.1109 10.3219L76.1015 10.3698L76.0968 10.4184L77.0922 10.5142ZM77.0415 11.0409L76.0461 10.9451L76.0265 11.149L76.0886 11.3442L77.0415 11.0409ZM77.2035 11.5498L76.2506 11.8531L76.3692 12.2256L76.7089 12.4189L77.2035 11.5498ZM77.6254 11.7899L77.1308 12.659L77.5124 12.8761L77.9305 12.7422L77.6254 11.7899ZM78.1453 11.6234L78.4503 12.5757L78.7398 12.483L78.9287 12.2448L78.1453 11.6234ZM78.4829 11.1977L78.1086 10.2704L77.8636 10.3693L77.6995 10.5762L78.4829 11.1977ZM78.9856 10.9948L79.3599 11.9221L79.6782 11.7936L79.8505 11.4967L78.9856 10.9948ZM79.2654 10.5126L78.6539 9.7213L78.4989 9.84113L78.4005 10.0106L79.2654 10.5126ZM79.6761 10.1952L79.4294 9.22609L79.2286 9.27722L79.0646 9.40391L79.6761 10.1952ZM80.2392 10.0518L80.486 11.0209L81.0875 10.8677L81.2171 10.2607L80.2392 10.0518ZM80.3752 9.41555L79.7005 8.67739L79.4641 8.89343L79.3972 9.2066L80.3752 9.41555ZM80.7583 9.06539L80.17 8.25671L80.1249 8.28956L80.0837 8.32723L80.7583 9.06539ZM81.1807 8.7581L80.8446 7.81629L80.7089 7.8647L80.5925 7.94942L81.1807 8.7581ZM81.7087 8.56965L82.0449 9.51146L82.1177 9.48545L82.1857 9.44854L81.7087 8.56965ZM82.1746 8.31677L82.6517 9.19566L82.9843 9.01514L83.114 8.65966L82.1746 8.31677ZM82.3816 7.74983L82.313 6.75218L81.6649 6.79672L81.4422 7.40694L82.3816 7.74983ZM82.9885 7.70813L83.057 8.70578L83.5069 8.67486L83.7815 8.31723L82.9885 7.70813ZM83.3284 7.26548L83.5593 6.2925L82.9296 6.14305L82.5353 6.65637L83.3284 7.26548ZM83.8262 7.38361L84.7694 7.05134L84.5881 6.53664L84.0571 6.41064L83.8262 7.38361ZM83.9952 7.8632L84.9616 7.60627L84.9515 7.56814L84.9384 7.53092L83.9952 7.8632ZM84.124 8.34775L83.1576 8.60469L83.1885 8.72106L83.2462 8.82676L84.124 8.34775ZM84.3802 8.81735L85.3763 8.72875L85.3579 8.52123L85.2581 8.33834L84.3802 8.81735ZM84.4267 9.33935L83.4306 9.42795L83.4413 9.54778L83.48 9.66165L84.4267 9.33935ZM84.5959 9.83633L85.5791 9.65407L85.5659 9.58272L85.5425 9.51403L84.5959 9.83633ZM84.697 10.3818L83.7138 10.5641L83.7941 10.9973L84.168 11.2304L84.697 10.3818ZM85.1827 10.6847L84.6537 11.5333L85.0145 11.7582L85.4268 11.6544L85.1827 10.6847ZM85.6962 10.5555L85.9402 11.5252L86.1243 11.4789L86.2786 11.3684L85.6962 10.5555ZM86.1223 10.2502L86.7047 11.0631L86.8605 10.9515L86.964 10.7901L86.1223 10.2502ZM86.4152 9.79354L85.6374 9.16511L85.603 9.20762L85.5735 9.25361L86.4152 9.79354ZM86.7515 9.37731L86.5856 8.39117L86.2118 8.45405L85.9736 8.74888L86.7515 9.37731ZM87.3379 9.27867L87.5038 10.2648L87.8475 10.207L88.0808 9.94809L87.3379 9.27867ZM87.6243 8.96088L88.4288 8.36685L87.7013 7.38167L86.8814 8.29145L87.6243 8.96088ZM86.8274 9.56516C87.1555 10.0094 87.7816 10.1037 88.2259 9.77559C88.6702 9.44752 88.7644 8.8214 88.4363 8.37712L87.6319 8.97114L86.8274 9.56516ZM1.18319 13.867L2.10769 14.2482L2.14581 14.1558L1.22131 13.7746L0.296806 13.3934L0.258689 13.4859L1.18319 13.867ZM1.22131 13.7746L2.22087 13.7451L2.2083 13.3191L1.20874 13.3486L0.209172 13.3781L0.221744 13.8041L1.22131 13.7746ZM1.20874 13.3486L2.1799 13.1102L2.04911 12.5773L1.07794 12.8157L0.106777 13.0541L0.23757 13.587L1.20874 13.3486ZM1.07794 12.8157L1.90245 13.3816L2.24094 12.8884L1.41644 12.3225L0.591937 11.7567L0.253441 12.2499L1.07794 12.8157ZM1.41644 12.3225L2.34078 11.941L2.11613 11.3967L1.19178 11.7783L0.267442 12.1599L0.492098 12.7041L1.41644 12.3225ZM1.19178 11.7783L2.14448 12.0822L2.3062 11.5753L1.3535 11.2714L0.400797 10.9674L0.239084 11.4744L1.19178 11.7783ZM1.3535 11.2714L2.35316 11.2452L2.33939 10.7189L1.33974 10.7451L0.340078 10.7712L0.35384 11.2975L1.3535 11.2714ZM1.33974 10.7451L2.13678 11.349L2.49828 10.8719L1.70124 10.268L0.904194 9.66406L0.542691 10.1412L1.33974 10.7451ZM1.70124 10.268L2.67367 10.0348L2.54327 9.49097L1.57083 9.72415L0.5984 9.95733L0.728805 10.5012L1.70124 10.268ZM1.57083 9.72415L2.55678 9.55711L2.46429 9.01117L1.47834 9.17821L0.492391 9.34525L0.584884 9.89119L1.57083 9.72415ZM1.47834 9.17821L2.36229 9.64578L2.61833 9.16176L1.73437 8.69418L0.850421 8.2266L0.594389 8.71063L1.47834 9.17821ZM1.73437 8.69418L2.47259 9.36875L2.85954 8.94528L2.12133 8.27072L1.38311 7.59615L0.99616 8.01961L1.73437 8.69418ZM2.12133 8.27072L3.10946 8.11709L3.00793 7.46405L2.0198 7.61768L1.03167 7.77131L1.1332 8.42434L2.12133 8.27072ZM2.0198 7.61768L1.90516 8.61109L2.4833 8.6778L2.59793 7.68439L2.71256 6.69099L2.13443 6.62427L2.0198 7.61768ZM2.59793 7.68439L2.07922 8.53934L2.44522 8.7614L2.96394 7.90646L3.48265 7.05151L3.11664 6.82945L2.59793 7.68439ZM2.96394 7.90646L2.09823 8.40701L2.35849 8.85712L3.22419 8.35656L4.0899 7.85601L3.82964 7.4059L2.96394 7.90646ZM3.22419 8.35656L2.53559 9.0817L2.92445 9.45097L3.61306 8.72584L4.30166 8.0007L3.9128 7.63143L3.22419 8.35656ZM3.61306 8.72584L2.67741 9.07878L2.86371 9.57266L3.79935 9.21972L4.735 8.86677L4.5487 8.3729L3.61306 8.72584ZM3.79935 9.21972L2.96511 9.7711L3.25187 10.205L4.08612 9.65359L4.92037 9.1022L4.6336 8.66833L3.79935 9.21972ZM4.08612 9.65359L3.22933 10.1693L3.49801 10.6157L4.3548 10.1L5.21158 9.58432L4.9429 9.13791L4.08612 9.65359ZM4.3548 10.1L3.44776 10.521L3.66677 10.9929L4.57381 10.5718L5.48085 10.1508L5.26184 9.67895L4.3548 10.1ZM4.57381 10.5718L3.68659 11.0331L3.92681 11.4951L4.81404 11.0338L5.70126 10.5725L5.46103 10.1105L4.57381 10.5718ZM4.81404 11.0338L3.89333 11.424L4.09611 11.9025L5.01682 11.5122L5.93753 11.122L5.73475 10.6436L4.81404 11.0338ZM5.01682 11.5122L4.11218 11.9384L4.33403 12.4093L5.23867 11.9832L6.14332 11.557L5.92147 11.0861L5.01682 11.5122ZM5.23867 11.9832L4.24152 12.0585L4.28536 12.6387L5.28252 12.5633L6.27967 12.4879L6.23583 11.9078L5.23867 11.9832ZM5.28252 12.5633L5.38693 13.5578L5.94808 13.4989L5.84367 12.5044L5.73925 11.5098L5.1781 11.5688L5.28252 12.5633ZM5.84367 12.5044L6.79834 12.802L6.95881 12.2873L6.00414 11.9897L5.04947 11.692L4.88899 12.2067L5.84367 12.5044ZM6.00414 11.9897L6.55278 12.8257L7.02566 12.5154L6.47701 11.6794L5.92837 10.8433L5.4555 11.1536L6.00414 11.9897ZM6.47701 11.6794L7.23178 12.3354L7.57743 11.9377L6.82266 11.2817L6.06789 10.6257L5.72225 11.0234L6.47701 11.6794ZM6.82266 11.2817L7.78304 11.5604L7.93371 11.0412L6.97333 10.7625L6.01295 10.4838L5.86228 11.003L6.82266 11.2817ZM6.97333 10.7625L7.8581 11.2285L8.10272 10.7641L7.21795 10.2981L6.33318 9.83203L6.08856 10.2965L6.97333 10.7625ZM7.21795 10.2981L8.092 10.7839L8.34902 10.3215L7.47497 9.83567L6.60092 9.34983L6.3439 9.81223L7.21795 10.2981ZM7.47497 9.83567L7.90796 10.7371L8.42858 10.487L7.99558 9.58559L7.56259 8.68419L7.04198 8.93427L7.47497 9.83567ZM7.99558 9.58559L8.78615 10.198L9.10214 9.79003L8.31158 9.17765L7.52101 8.56527L7.20502 8.97321L7.99558 9.58559ZM8.31158 9.17765L8.7439 10.0794L9.16826 9.87591L8.73593 8.97419L8.30361 8.07247L7.87925 8.27593L8.31158 9.17765ZM8.73593 8.97419L8.98867 9.94172L9.5146 9.80434L9.26186 8.83681L9.00913 7.86927L8.4832 8.00665L8.73593 8.97419ZM9.26186 8.83681L8.42766 9.38826L8.74233 9.86428L9.57654 9.31283L10.4107 8.76138L10.0961 8.28536L9.26186 8.83681ZM9.57654 9.31283L8.59298 9.13227L8.47951 9.75033L9.46308 9.93089L10.4466 10.1114L10.5601 9.49339L9.57654 9.31283ZM9.46308 9.93089L8.87652 10.7408L9.37781 11.1038L9.96436 10.2939L10.5509 9.48402L10.0496 9.12098L9.46308 9.93089ZM9.96436 10.2939L8.96589 10.3492L8.99609 10.8946L9.99456 10.8393L10.993 10.7841L10.9628 10.2387L9.96436 10.2939ZM9.99456 10.8393L8.99554 10.8836L9.01986 11.4325L10.0189 11.3882L11.0179 11.3439L10.9936 10.7951L9.99456 10.8393ZM10.0189 11.3882L9.07977 11.7318L9.25856 12.2204L10.1977 11.8768L11.1368 11.5332L10.958 11.0446L10.0189 11.3882ZM10.1977 11.8768L9.40998 12.4929L9.74456 12.9207L10.5323 12.3046L11.3199 11.6885L10.9854 11.2608L10.1977 11.8768ZM10.5323 12.3046L9.80931 12.9955L10.1983 13.4026L10.9213 12.7117L11.6442 12.0208L11.2552 11.6137L10.5323 12.3046ZM10.9213 12.7117L9.95874 12.9829L10.1003 13.4854L11.0629 13.2142L12.0254 12.943L11.8838 12.4405L10.9213 12.7117ZM11.0629 13.2142L10.0932 13.4587L10.2212 13.9661L11.1908 13.7216L12.1604 13.4771L12.0325 12.9697L11.0629 13.2142ZM11.1908 13.7216L10.2809 14.1364L10.4966 14.6095L11.4065 14.1947L12.3164 13.7799L12.1007 13.3067L11.1908 13.7216ZM11.4065 14.1947L10.4523 14.494L10.6082 14.991L11.5624 14.6917L12.5166 14.3925L12.3607 13.8954L11.4065 14.1947ZM11.5624 14.6917L10.6967 15.1923L10.9572 15.6428L11.8229 15.1423L12.6886 14.6417L12.4281 14.1912L11.5624 14.6917ZM11.8229 15.1423L10.9771 15.6757L11.246 16.1021L12.0918 15.5687L12.9377 15.0353L12.6688 14.6088L11.8229 15.1423ZM12.0918 15.5687L11.5345 16.399L11.7995 16.5769L12.3569 15.7466L12.9143 14.9164L12.6492 14.7384L12.0918 15.5687ZM12.3569 15.7466L13.0334 16.4831L13.4374 16.1119L12.7609 15.3755L12.0844 14.639L11.6804 15.0102L12.3569 15.7466ZM12.7609 15.3755L13.627 15.8755L13.8943 15.4125L13.0283 14.9125L12.1623 14.4125L11.8949 14.8754L12.7609 15.3755ZM13.0283 14.9125L13.9296 15.3456L14.1555 14.8754L13.2542 14.4423L12.3529 14.0092L12.1269 14.4794L13.0283 14.9125ZM13.2542 14.4423L14.2374 14.2595L14.1229 13.6441L13.1398 13.827L12.1566 14.0098L12.2711 14.6251L13.2542 14.4423ZM13.1398 13.827L14.0856 14.1517L14.2545 13.6597L13.3087 13.3349L12.3629 13.0102L12.194 13.5022L13.1398 13.827ZM13.3087 13.3349L13.9133 14.1314L14.3979 13.7636L13.7933 12.9671L13.1887 12.1706L12.7041 12.5384L13.3087 13.3349ZM13.7933 12.9671L14.71 13.3668L14.9182 12.8892L14.0015 12.4896L13.0848 12.0899L12.8766 12.5674L13.7933 12.9671ZM14.0015 12.4896L14.9851 12.67L15.0805 12.1497L14.0969 11.9693L13.1133 11.7889L13.0179 12.3092L14.0015 12.4896ZM14.0969 11.9693L15.0965 11.9973L15.1119 11.4474L14.1123 11.4194L13.1127 11.3915L13.0973 11.9413L14.0969 11.9693ZM14.1123 11.4194L15.0165 11.8466L15.2394 11.3748L14.3352 10.9476L13.431 10.5205L13.2081 10.9923L14.1123 11.4194ZM14.3352 10.9476L15.2425 11.3681L15.4615 10.8955L14.5542 10.475L13.6469 10.0546L13.4279 10.5272L14.3352 10.9476ZM14.5542 10.475L15.492 10.8221L15.6724 10.3348L14.7346 9.98767L13.7968 9.64055L13.6164 10.1279L14.5542 10.475ZM14.7346 9.98767L15.7046 10.2306L15.8318 9.72282L14.8618 9.47985L13.8918 9.23688L13.7646 9.7447L14.7346 9.98767ZM14.8618 9.47985L15.5847 10.1708L15.9753 9.76219L15.2523 9.07124L14.5294 8.38029L14.1389 8.7889L14.8618 9.47985ZM15.2523 9.07124L16.2367 8.89476L16.1294 8.29642L15.1451 8.4729L14.1608 8.64938L14.268 9.24771L15.2523 9.07124ZM15.1451 8.4729L15.7319 9.28265L16.2344 8.91846L15.6476 8.10872L15.0609 7.29897L14.5583 7.66316L15.1451 8.4729ZM15.6476 8.10872L16.5361 8.56773L16.7756 8.10413L15.8872 7.64512L14.9987 7.18611L14.7592 7.6497L15.6476 8.10872ZM15.8872 7.64512L16.8857 7.69886L16.9152 7.15156L15.9166 7.09782L14.9181 7.04408L14.8886 7.59138L15.8872 7.64512ZM15.9166 7.09782L16.8291 7.50683L17.042 7.03188L16.1295 6.62287L15.217 6.21386L15.0041 6.68881L15.9166 7.09782ZM16.1295 6.62287L16.9957 7.12255L17.2577 6.66832L16.3915 6.16864L15.5253 5.66896L15.2633 6.12319L16.1295 6.62287ZM16.3915 6.16864L17.236 6.70419L17.5178 6.25979L16.6733 5.72425L15.8288 5.1887L15.547 5.63309L16.3915 6.16864ZM16.6733 5.72425L17.6708 5.65344L17.6294 5.06944L16.6319 5.14024L15.6344 5.21104L15.6758 5.79505L16.6733 5.72425ZM16.6319 5.14024L17.2568 5.92089L17.7141 5.55478L17.0892 4.77413L16.4642 3.99349L16.0069 4.35959L16.6319 5.14024ZM17.0892 4.77413L18.0543 5.03573L18.1919 4.5283L17.2267 4.2667L16.2615 4.0051L16.124 4.51254L17.0892 4.77413ZM17.2267 4.2667L18.2246 4.33141L18.2608 3.7738L17.2629 3.7091L16.265 3.6444L16.2288 4.202L17.2267 4.2667ZM17.2629 3.7091L17.9536 4.43216L18.3547 4.049L17.6639 3.32594L16.9731 2.60288L16.5721 2.98604L17.2629 3.7091ZM17.6639 3.32594L18.6608 3.40497L18.7052 2.84479L17.7083 2.76576L16.7115 2.68672L16.667 3.24691L17.6639 3.32594ZM17.7083 2.76576L18.4185 3.4698L18.8028 3.08216L18.0926 2.37812L17.3825 1.67408L16.9982 2.06171L17.7083 2.76576ZM18.0926 2.37812L19.0581 2.63876L19.2003 2.11176L18.2349 1.85112L17.2695 1.59048L17.1272 2.11748L18.0926 2.37812ZM18.2349 1.85112L18.8355 2.65068L19.2809 2.31613L18.6803 1.51657L18.0797 0.717006L17.6343 1.05156L18.2349 1.85112ZM18.6803 1.51657L17.7878 1.96764L17.9923 2.37226L18.8848 1.9212L19.7773 1.47013L19.5728 1.0655L18.6803 1.51657ZM18.8848 1.9212L18.0186 2.42089L18.3012 2.9107L19.1674 2.41101L20.0336 1.91132L19.751 1.42151L18.8848 1.9212ZM19.1674 2.41101L18.1724 2.31073L18.1192 2.83857L19.1142 2.93885L20.1091 3.03914L20.1623 2.5113L19.1674 2.41101ZM19.1142 2.93885L18.1521 2.66583L18.0038 3.18846L18.9658 3.46149L19.9278 3.73451L20.0762 3.21187L19.1142 2.93885ZM18.9658 3.46149L17.9738 3.5874L18.0398 4.10711L19.0318 3.9812L20.0238 3.85528L19.9579 3.33557L18.9658 3.46149ZM19.0318 3.9812L18.0369 4.08166L18.0894 4.60165L19.0843 4.50119L20.0792 4.40073L20.0267 3.88073L19.0318 3.9812ZM19.0843 4.50119L18.102 4.31406L18.0029 4.83407L18.9852 5.0212L19.9676 5.20833L20.0666 4.68832L19.0843 4.50119ZM18.9852 5.0212L18.0889 5.46448L18.3463 5.98515L19.2427 5.54187L20.1391 5.09859L19.8816 4.57792L18.9852 5.0212ZM19.2427 5.54187L18.2427 5.54209L18.2428 6.06241L19.2428 6.06219L20.2428 6.06197L20.2427 5.54165L19.2427 5.54187ZM19.2428 6.06219L18.405 5.51621L18.0671 6.03484L18.9049 6.58082L19.7427 7.12679L20.0806 6.60816L19.2428 6.06219ZM18.9049 6.58082L17.966 6.92519L18.1571 7.44599L19.0959 7.10161L20.0347 6.75723L19.8437 6.23644L18.9049 6.58082ZM19.0959 7.10161L18.1017 6.99386L18.0454 7.51312L19.0396 7.62087L20.0338 7.72862L20.0901 7.20936L19.0959 7.10161ZM19.0396 7.62087L18.0436 7.7104L18.0904 8.23018L19.0863 8.14065L20.0823 8.05111L20.0356 7.53133L19.0396 7.62087ZM19.0863 8.14065L18.1414 7.81332L17.9612 8.33348L18.9062 8.6608L19.8511 8.98813L20.0313 8.46797L19.0863 8.14065ZM18.9062 8.6608L18.0678 9.206L18.4071 9.72769L19.2454 9.1825L20.0838 8.6373L19.7445 8.1156L18.9062 8.6608ZM19.2454 9.1825L18.2673 8.97444L18.1571 9.49283L19.1352 9.70088L20.1133 9.90894L20.2236 9.39056L19.2454 9.1825ZM19.1352 9.70088L18.1362 9.74562L18.1595 10.2663L19.1585 10.2215L20.1575 10.1768L20.1342 9.65615L19.1352 9.70088ZM19.1585 10.2215L18.2853 9.7341L17.9946 10.255L18.8677 10.7424L19.7409 11.2298L20.0317 10.7089L19.1585 10.2215ZM18.8677 10.7424L17.889 10.9476L17.9982 11.4681L18.9769 11.2629L19.9556 11.0577L19.8465 10.5372L18.8677 10.7424ZM18.9769 11.2629L18.0238 11.5658L18.1879 12.082L19.1409 11.7791L20.0939 11.4763L19.9299 10.9601L18.9769 11.2629ZM19.1409 11.7791L18.1787 11.5069L18.0303 12.0314L18.9925 12.3036L19.9548 12.5758L20.1031 12.0514L19.1409 11.7791ZM18.9925 12.3036L18.0285 12.5695L18.1706 13.0845L19.1346 12.8186L20.0986 12.5527L19.9565 12.0377L18.9925 12.3036ZM19.1346 12.8186L18.2143 13.2098L18.4241 13.7034L19.3444 13.3123L20.2647 12.9211L20.055 12.4275L19.1346 12.8186ZM19.3444 13.3123L18.3947 12.999L18.2057 13.572L19.1554 13.8853L20.105 14.1986L20.2941 13.6255L19.3444 13.3123ZM19.1554 13.8853L18.82 14.8274L19.3734 15.0244L19.7088 14.0823L20.0442 13.1402L19.4908 12.9432L19.1554 13.8853ZM19.7088 14.0823L20.1051 15.0004L20.6018 14.7861L20.2055 13.868L19.8092 12.9498L19.3125 13.1642L19.7088 14.0823ZM20.2055 13.868L20.73 14.7194L21.1775 14.4437L20.6529 13.5923L20.1284 12.7409L19.6809 13.0166L20.2055 13.868ZM20.6529 13.5923L21.5392 14.0554L21.8111 13.5351L20.9248 13.072L20.0385 12.6089L19.7667 13.1291L20.6529 13.5923ZM20.9248 13.072L20.9157 14.072L21.5663 14.0779L21.5754 13.0779L21.5845 12.078L20.9339 12.072L20.9248 13.072ZM21.5754 13.0779L22.4552 13.5532L22.7265 13.051L21.8466 12.5757L20.9668 12.1005L20.6955 12.6027L21.5754 13.0779ZM21.8466 12.5757L22.5558 13.2808L22.9246 12.9099L22.2154 12.2048L21.5063 11.4997L21.1375 11.8706L21.8466 12.5757ZM22.2154 12.2048L22.6951 13.0823L23.1582 12.8291L22.6785 11.9517L22.1988 11.0742L21.7358 11.3273L22.2154 12.2048ZM22.6785 11.9517L23.4984 12.5242L23.8089 12.0794L22.989 11.5069L22.1691 10.9344L21.8586 11.3792L22.6785 11.9517ZM22.989 11.5069L23.4265 12.4062L23.9057 12.173L23.4682 11.2738L23.0307 10.3746L22.5515 10.6077L22.989 11.5069ZM23.4682 11.2738L23.8517 12.1974L24.3518 11.9897L23.9683 11.0661L23.5848 10.1426L23.0847 10.3503L23.4682 11.2738ZM23.9683 11.0661L24.8604 11.5181L25.119 11.0077L24.2269 10.5557L23.3349 10.1038L23.0763 10.6142L23.9683 11.0661ZM24.2269 10.5557L24.6508 11.4615L25.1349 11.2349L24.711 10.3292L24.2871 9.42345L23.803 9.65003L24.2269 10.5557ZM24.711 10.3292L25.2155 11.1926L25.6683 10.9281L25.1638 10.0646L24.6593 9.20122L24.2066 9.46575L24.711 10.3292ZM25.1638 10.0646L25.9503 10.6822L26.2821 10.2597L25.4956 9.64211L24.7091 9.02453L24.3773 9.44706L25.1638 10.0646ZM25.4956 9.64211L26.2421 10.3074L26.6155 9.8885L25.8689 9.22316L25.1224 8.55783L24.749 8.97678L25.4956 9.64211ZM25.8689 9.22316L25.6747 10.2041L26.279 10.3238L26.4732 9.34279L26.6674 8.36183L26.0631 8.2422L25.8689 9.22316ZM26.4732 9.34279L26.4027 10.3403L26.8634 10.3729L26.9339 9.37536L27.0045 8.37785L26.5437 8.34528L26.4732 9.34279ZM26.9339 9.37536L26.2508 10.1057L26.622 10.4529L27.3052 9.72259L27.9883 8.9923L27.6171 8.64506L26.9339 9.37536ZM27.3052 9.72259L26.3662 10.0667L26.5507 10.57L27.4896 10.2259L28.4285 9.88179L28.2441 9.37848L27.3052 9.72259ZM27.4896 10.2259L26.9199 11.0478L27.3764 11.3641L27.946 10.5423L28.5157 9.72042L28.0593 9.40404L27.4896 10.2259ZM27.946 10.5423L27.0555 10.9971L27.2941 11.4644L28.1847 11.0095L29.0753 10.5547L28.8366 10.0874L27.946 10.5423ZM28.1847 11.0095L27.2493 11.3632L27.4404 11.8687L28.3758 11.515L29.3112 11.1613L29.1201 10.6559L28.1847 11.0095ZM28.3758 11.515L28.048 12.4598L28.6437 12.6665L28.9715 11.7217L29.2993 10.777L28.7036 10.5703L28.3758 11.515ZM28.9715 11.7217L28.1178 12.2424L28.3885 12.6863L29.2423 12.1656L30.096 11.6449L29.8253 11.201L28.9715 11.7217ZM29.2423 12.1656L28.3645 12.6447L28.6167 13.1066L29.4944 12.6275L30.3722 12.1483L30.12 11.6864L29.2423 12.1656ZM29.4944 12.6275L28.5276 12.8828L28.6714 13.4273L29.6382 13.172L30.6051 12.9167L30.4613 12.3722L29.4944 12.6275ZM29.6382 13.172L29.025 13.9619L29.4504 14.2922L30.0636 13.5023L30.6768 12.7124L30.2515 12.3821L29.6382 13.172ZM30.0636 13.5023L29.3176 14.1682L29.664 14.5563L30.41 13.8904L31.156 13.2244L30.8096 12.8364L30.0636 13.5023ZM30.41 13.8904L29.6267 14.512L29.9498 14.9191L30.733 14.2974L31.5163 13.6757L31.1933 13.2687L30.41 13.8904ZM30.733 14.2974L30.079 15.0538L30.479 15.3998L31.1331 14.6433L31.7872 13.8869L31.3871 13.541L30.733 14.2974ZM31.1331 14.6433L30.1523 14.8384L30.2671 15.4153L31.2479 15.2203L32.2286 15.0253L32.1139 14.4483L31.1331 14.6433ZM31.2479 15.2203L30.9029 16.1589L31.4699 16.3673L31.8149 15.4287L32.1599 14.4901L31.5928 14.2817L31.2479 15.2203ZM31.8149 15.4287L30.9537 15.9369L31.2207 16.3895L32.0819 15.8813L32.9432 15.373L32.6761 14.9205L31.8149 15.4287ZM32.0819 15.8813L31.1019 16.0801L31.2194 16.659L32.1994 16.4601L33.1794 16.2612L33.062 15.6824L32.0819 15.8813ZM32.1994 16.4601L31.7892 17.3721L32.3161 17.6091L32.7264 16.6971L33.1366 15.7851L32.6096 15.5481L32.1994 16.4601ZM32.7264 16.6971L32.0701 17.4517L32.4668 17.7967L33.123 17.0421L33.7793 16.2876L33.3826 15.9426L32.7264 16.6971ZM33.123 17.0421L32.1361 17.2033L32.2342 17.8041L33.2212 17.6428L34.2081 17.4816L34.1099 16.8809L33.123 17.0421ZM33.2212 17.6428L33.0052 18.6192L33.6386 18.7593L33.8545 17.7829L34.0705 16.8065L33.4371 16.6664L33.2212 17.6428ZM33.8545 17.7829L33.2055 18.5437L33.5096 18.8031L34.1586 18.0423L34.8076 17.2816L34.5036 17.0222L33.8545 17.7829ZM34.1586 18.0423L33.8465 18.9924L34.3005 19.1415L34.6126 18.1915L34.9247 17.2415L34.4708 17.0923L34.1586 18.0423ZM34.6126 18.1915L35.0063 19.1107L35.5052 18.8971L35.1115 17.9778L34.7178 17.0586L34.2189 17.2722L34.6126 18.1915ZM35.1115 17.9778L35.8049 18.6984L36.1883 18.3294L35.4949 17.6088L34.8016 16.8883L34.4181 17.2573L35.1115 17.9778ZM35.4949 17.6088L36.3964 18.0418L36.6356 17.5437L35.7342 17.1107L34.8328 16.6778L34.5935 17.1759L35.4949 17.6088ZM35.7342 17.1107L36.5238 17.7244L36.8407 17.3165L36.0512 16.7029L35.2616 16.0892L34.9446 16.4971L35.7342 17.1107ZM36.0512 16.7029L36.7234 17.4432L37.1119 17.0904L36.4397 16.3501L35.7675 15.6097L35.379 15.9625L36.0512 16.7029ZM36.4397 16.3501L37.2011 16.9984L37.5378 16.603L36.7765 15.9546L36.0151 15.3063L35.6784 15.7017L36.4397 16.3501ZM36.7765 15.9546L37.7083 16.3177L37.9047 15.8134L36.9729 15.4504L36.0412 15.0873L35.8447 15.5916L36.7765 15.9546ZM36.9729 15.4504L37.7705 16.0536L38.0834 15.64L37.2858 15.0367L36.4883 14.4335L36.1754 14.8471L36.9729 15.4504ZM37.2858 15.0367L38.0947 15.6247L38.4 15.2046L37.5911 14.6167L36.7822 14.0288L36.4769 14.4488L37.2858 15.0367ZM37.5911 14.6167L38.3379 15.2818L38.685 14.8921L37.9382 14.227L37.1915 13.5619L36.8444 13.9516L37.5911 14.6167ZM37.9382 14.227L38.5592 15.0108L38.9819 14.6759L38.3609 13.8921L37.7399 13.1083L37.3172 13.4432L37.9382 14.227ZM38.3609 13.8921L39.219 14.4057L39.4871 13.9576L38.6291 13.4441L37.771 12.9305L37.5029 13.3785L38.3609 13.8921ZM38.6291 13.4441L39.3065 14.1796L39.697 13.82L39.0195 13.0845L38.342 12.3489L37.9516 12.7085L38.6291 13.4441ZM39.0195 13.0845L39.8103 13.6966L40.1289 13.285L39.3381 12.6729L38.5473 12.0608L38.2287 12.4724L39.0195 13.0845ZM39.3381 12.6729L40.2466 13.0909L40.4682 12.609L39.5598 12.1911L38.6513 11.7731L38.4296 12.255L39.3381 12.6729ZM39.5598 12.1911L40.4053 12.725L40.6836 12.2842L39.8381 11.7503L38.9926 11.2164L38.7142 11.6571L39.5598 12.1911ZM39.8381 11.7503L40.7593 12.1394L40.9675 11.6464L40.0463 11.2573L39.1251 10.8683L38.9169 11.3612L39.8381 11.7503ZM40.0463 11.2573L40.8194 11.8917L41.1512 11.4873L40.3782 10.8529L39.6051 10.2186L39.2733 10.623L40.0463 11.2573ZM40.3782 10.8529L40.7448 11.7833L41.3095 11.5608L40.9428 10.6304L40.5762 9.70003L40.0116 9.92253L40.3782 10.8529ZM40.9428 10.6304L41.6869 11.2986L42.0323 10.9139L41.2883 10.2458L40.5442 9.57761L40.1988 9.96224L40.9428 10.6304ZM41.2883 10.2458L41.2722 11.2456L41.463 11.2487L41.479 10.2488L41.4951 9.24897L41.3043 9.24591L41.2883 10.2458ZM41.479 10.2488L40.5307 10.566L40.6937 11.0536L41.6421 10.7364L42.5905 10.4193L42.4274 9.93166L41.479 10.2488ZM41.6421 10.7364L40.7495 11.1872L40.9837 11.651L41.8763 11.2003L42.769 10.7495L42.5348 10.2857L41.6421 10.7364ZM41.8763 11.2003L40.9891 11.6617L41.2302 12.1253L42.1174 11.6639L43.0046 11.2025L42.7635 10.7389L41.8763 11.2003ZM42.1174 11.6639L41.3114 12.2557L41.6268 12.6853L42.4329 12.0935L43.2389 11.5017L42.9235 11.0721L42.1174 11.6639ZM42.4329 12.0935L41.5102 12.4791L41.7097 12.9564L42.6323 12.5708L43.555 12.1852L43.3555 11.7079L42.4329 12.0935ZM42.6323 12.5708L41.725 12.9913L41.9426 13.4608L42.8499 13.0404L43.7573 12.62L43.5397 12.1504L42.6323 12.5708ZM42.8499 13.0404L42.0899 13.6903L42.4258 14.0831L43.1858 13.4333L43.9459 12.7834L43.61 12.3906L42.8499 13.0404ZM43.1858 13.4333L42.3018 13.9008L42.5451 14.3607L43.4291 13.8932L44.3131 13.4257L44.0698 12.9658L43.1858 13.4333ZM43.4291 13.8932L42.5038 14.2725L42.7243 14.8103L43.6495 14.431L44.5748 14.0516L44.3543 13.5139L43.4291 13.8932ZM43.6495 14.431L43.6948 15.43L44.3515 15.4002L44.3062 14.4012L44.261 13.4023L43.6043 13.432L43.6495 14.431ZM44.3062 14.4012L43.8295 15.2803L44.2549 15.511L44.7316 14.6319L45.2083 13.7529L44.7829 13.5222L44.3062 14.4012ZM44.7316 14.6319L44.0124 15.3267L44.4478 15.7774L45.167 15.0826L45.8862 14.3878L45.4509 13.9371L44.7316 14.6319ZM45.167 15.0826L45.7449 15.8988L46.2655 15.5302L45.6877 14.714L45.1099 13.8978L44.5892 14.2665L45.167 15.0826ZM45.6877 14.714L45.3399 15.6516L45.9027 15.8603L46.2505 14.9228L46.5983 13.9852L46.0355 13.7764L45.6877 14.714ZM46.2505 14.9228L46.9734 15.6138L47.3739 15.1948L46.651 14.5038L45.9281 13.8128L45.5276 14.2318L46.2505 14.9228ZM46.651 14.5038L46.8134 15.4905L47.3466 15.4028L47.1842 14.4161L47.0218 13.4293L46.4886 13.5171L46.651 14.5038ZM47.1842 14.4161L47.6391 15.3066L48.1069 15.0677L47.6521 14.1771L47.1972 13.2865L46.7294 13.5255L47.1842 14.4161ZM47.6521 14.1771L48.3799 14.8629L48.7445 14.4759L48.0168 13.7901L47.289 13.1043L46.9243 13.4913L47.6521 14.1771ZM48.0168 13.7901L48.6244 14.5843L49.0371 14.2686L48.4294 13.4744L47.8217 12.6802L47.4091 12.9959L48.0168 13.7901ZM48.4294 13.4744L48.9588 14.3227L49.4045 14.0446L48.8751 13.1962L48.3456 12.3479L47.8999 12.626L48.4294 13.4744ZM48.8751 13.1962L49.7064 13.752L50.005 13.3052L49.1737 12.7495L48.3423 12.1938L48.0437 12.6405L48.8751 13.1962ZM49.1737 12.7495L49.6789 13.6125L50.138 13.3438L49.6328 12.4808L49.1276 11.6178L48.6685 11.8865L49.1737 12.7495ZM49.6328 12.4808L50.3263 13.2011L50.7014 12.84L50.0079 12.1196L49.3143 11.3992L48.9392 11.7604L49.6328 12.4808ZM50.0079 12.1196L50.6656 12.8728L51.0584 12.5298L50.4006 11.7766L49.7429 11.0234L49.3501 11.3664L50.0079 12.1196ZM50.4006 11.7766L50.9561 12.6081L51.3983 12.3127L50.8429 11.4812L50.2874 10.6496L49.8452 10.945L50.4006 11.7766ZM50.8429 11.4812L51.7331 11.9368L51.9814 11.4515L51.0912 10.996L50.201 10.5404L49.9527 11.0256L50.8429 11.4812ZM51.0912 10.996L51.5743 11.8715L52.0515 11.6083L51.5684 10.7327L51.0853 9.85711L50.6081 10.1204L51.0912 10.996ZM51.5684 10.7327L52.4988 11.0992L52.7048 10.5762L51.7744 10.2097L50.844 9.84318L50.638 10.3662L51.5684 10.7327ZM51.7744 10.2097L52.2646 11.0813L52.7392 10.8144L52.249 9.9428L51.7587 9.0712L51.2842 9.3381L51.7744 10.2097ZM52.249 9.9428L52.9906 10.6136L53.3395 10.2279L52.5979 9.55708L51.8563 8.88625L51.5073 9.27197L52.249 9.9428ZM52.5979 9.55708L53.5688 9.79657L53.7127 9.21302L52.7418 8.97353L51.7709 8.73404L51.627 9.31759L52.5979 9.55708ZM52.7418 8.97353L52.9394 9.95382L53.5533 9.8301L53.3557 8.84981L53.1582 7.86952L52.5443 7.99324L52.7418 8.97353ZM53.3557 8.84981L54.2115 9.36724L54.4888 8.90858L53.6331 8.39116L52.7774 7.87373L52.5 8.33238L53.3557 8.84981ZM53.6331 8.39116L54.1247 9.26198L54.5803 9.00478L54.0887 8.13396L53.5971 7.26314L53.1415 7.52034L53.6331 8.39116ZM54.0887 8.13396L54.6982 8.9267L55.0893 8.62603L54.4797 7.83328L53.8702 7.04054L53.4791 7.34122L54.0887 8.13396ZM54.4797 7.83328L53.8905 8.64126L54.2894 8.93218L54.8786 8.12421L55.4679 7.31624L55.0689 7.02531L54.4797 7.83328ZM54.8786 8.12421L53.8919 8.28645L53.9792 8.81729L54.9659 8.65506L55.9527 8.49282L55.8654 7.96198L54.8786 8.12421ZM54.9659 8.65506L53.9659 8.6545L53.9656 9.17879L54.9656 9.17935L55.9656 9.17991L55.9659 8.65561L54.9659 8.65506ZM54.9656 9.17935L54.1029 8.67362L53.7987 9.19265L54.6614 9.69838L55.5241 10.2041L55.8283 9.68508L54.9656 9.17935ZM54.6614 9.69838L53.7434 10.0951L53.9691 10.6173L54.887 10.2205L55.805 9.8238L55.5793 9.30164L54.6614 9.69838ZM54.887 10.2205L53.8896 10.1492L53.8524 10.6687L54.8499 10.7401L55.8474 10.8114L55.8845 10.2919L54.887 10.2205ZM54.8499 10.7401L53.8596 10.6012L53.7868 11.1203L54.7771 11.2591L55.7675 11.3979L55.8402 10.8789L54.8499 10.7401ZM54.7771 11.2591L53.7775 11.2848L53.7908 11.8052L54.7905 11.7795L55.7902 11.7539L55.7768 11.2334L54.7771 11.2591ZM54.7905 11.7795L53.8215 11.5326L53.6892 12.0514L54.6583 12.2983L55.6273 12.5453L55.7595 12.0265L54.7905 11.7795ZM54.6583 12.2983L53.7691 12.7559L54.0378 13.2781L54.927 12.8206L55.8162 12.363L55.5475 11.8408L54.6583 12.2983ZM54.927 12.8206L53.9378 12.6735L53.8606 13.1929L54.8497 13.34L55.8389 13.4871L55.9161 12.9676L54.927 12.8206ZM54.8497 13.34L53.9041 13.6651L54.0817 14.1817L55.0273 13.8566L55.973 13.5315L55.7954 13.0149L54.8497 13.34ZM55.0273 13.8566L54.1272 13.421L53.8728 13.9468L54.7729 14.3824L55.6731 14.818L55.9275 14.2922L55.0273 13.8566ZM54.7729 14.3824L53.7885 14.5585L53.8808 15.0746L54.8652 14.8985L55.8496 14.7225L55.7573 14.2064L54.7729 14.3824ZM54.8652 14.8985L53.8901 15.1202L54.0077 15.6375L54.9828 15.4159L55.9579 15.1943L55.8403 14.6769L54.8652 14.8985ZM54.9828 15.4159L55.2152 16.3885L55.805 16.2476L55.5725 15.275L55.3401 14.3023L54.7504 14.4433L54.9828 15.4159ZM55.5725 15.275L56.4155 15.8129L56.7012 15.3652L55.8582 14.8273L55.0152 14.2894L54.7295 14.737L55.5725 15.275ZM55.8582 14.8273L56.4819 15.609L56.8918 15.2819L56.268 14.5002L55.6443 13.7186L55.2344 14.0457L55.8582 14.8273ZM56.268 14.5002L57.0502 15.1233L57.3733 14.7176L56.5911 14.0946L55.8089 13.4716L55.4858 13.8772L56.268 14.5002ZM56.5911 14.0946L57.5666 14.3146L57.7003 13.7216L56.7248 13.5017L55.7493 13.2817L55.6156 13.8746L56.5911 14.0946ZM56.7248 13.5017L57.3446 14.2865L57.7571 13.9607L57.1374 13.1759L56.5176 12.3911L56.1051 12.7169L56.7248 13.5017ZM57.1374 13.1759L57.6332 14.0443L58.1 13.7777L57.6042 12.9093L57.1083 12.0409L56.6415 12.3075L57.1374 13.1759ZM57.6042 12.9093L58.1664 13.7363L58.5997 13.4417L58.0374 12.6148L57.4752 11.7878L57.0419 12.0824L57.6042 12.9093ZM58.0374 12.6148L58.8942 13.1305L59.1741 12.6655L58.3173 12.1498L57.4606 11.634L57.1807 12.099L58.0374 12.6148ZM58.3173 12.1498L58.9236 12.9451L59.3384 12.6288L58.7322 11.8336L58.1259 11.0383L57.7111 11.3545L58.3173 12.1498ZM58.7322 11.8336L59.3135 12.6472L59.7363 12.3452L59.1549 11.5315L58.5736 10.7178L58.1509 11.0199L58.7322 11.8336ZM59.1549 11.5315L59.6703 12.3885L60.1129 12.1223L59.5975 11.2653L59.0821 10.4084L58.6395 10.6746L59.1549 11.5315ZM59.5975 11.2653L59.8684 12.228L60.4535 12.0633L60.1825 11.1007L59.9116 10.1381L59.3266 10.3027L59.5975 11.2653ZM60.1825 11.1007L59.2474 11.4551L59.461 12.0187L60.3961 11.6643L61.3312 11.31L61.1177 10.7463L60.1825 11.1007ZM60.3961 11.6643L59.4119 11.4876L59.3132 12.0373L60.2974 12.2141L61.2817 12.3909L61.3804 11.8411L60.3961 11.6643ZM60.2974 12.2141L59.4555 12.7537L59.7581 13.2258L60.6 12.6862L61.4419 12.1466L61.1393 11.6745L60.2974 12.2141ZM60.6 12.6862L59.6133 12.849L59.6849 13.2826L60.6715 13.1198L61.6582 12.957L61.5866 12.5234L60.6 12.6862ZM60.6715 13.1198L61.1726 13.9852L61.5088 13.7905L61.0077 12.9251L60.5067 12.0597L60.1704 12.2544L60.6715 13.1198ZM61.0077 12.9251L61.6557 13.6868L62.0306 13.3678L61.3827 12.6062L60.7347 11.8445L60.3598 12.1635L61.0077 12.9251ZM61.3827 12.6062L62.2946 13.0165L62.5087 12.5407L61.5967 12.1304L60.6848 11.7201L60.4707 12.1959L61.3827 12.6062ZM61.5967 12.1304L62.122 12.9814L62.6078 12.6815L62.0825 11.8306L61.5573 10.9796L61.0715 11.2795L61.5967 12.1304ZM62.0825 11.8306L62.9348 12.3536L63.2079 11.9087L62.3555 11.3856L61.5032 10.8626L61.2302 11.3075L62.0825 11.8306ZM62.3555 11.3856L63.174 11.9602L63.5336 11.4479L62.7151 10.8734L61.8966 10.2989L61.537 10.8111L62.3555 11.3856ZM62.7151 10.8734L62.0308 11.6026L62.5041 12.0467L63.1884 11.3175L63.8727 10.5883L63.3994 10.1442L62.7151 10.8734ZM63.1884 11.3175L62.444 11.9852L62.8002 12.3824L63.5446 11.7147L64.289 11.0469L63.9328 10.6498L63.1884 11.3175ZM63.5446 11.7147L62.7521 12.3245L63.084 12.7558L63.8765 12.146L64.6691 11.5362L64.3372 11.1049L63.5446 11.7147ZM63.8765 12.146L62.9258 11.836L62.7158 12.4799L63.6666 12.7899L64.6173 13.0999L64.8273 12.456L63.8765 12.146ZM63.6666 12.7899L62.9136 13.4479L63.2782 13.8652L64.0312 13.2072L64.7842 12.5491L64.4196 12.1319L63.6666 12.7899ZM64.0312 13.2072L63.0628 13.4563L63.1931 13.9628L64.1615 13.7136L65.13 13.4644L64.9997 12.958L64.0312 13.2072ZM64.1615 13.7136L63.2485 14.1216L63.4614 14.5979L64.3744 14.1899L65.2874 13.7819L65.0745 13.3056L64.1615 13.7136ZM64.3744 14.1899L63.4012 14.42L63.5227 14.9337L64.4958 14.7037L65.469 14.4737L65.3476 13.9599L64.3744 14.1899ZM64.4958 14.7037L63.943 15.537L64.4618 15.8812L65.0146 15.0479L65.5674 14.2146L65.0487 13.8704L64.4958 14.7037ZM65.0146 15.0479L65.5342 15.9023L66.0384 15.5957L65.5188 14.7413L64.9993 13.8868L64.4951 14.1934L65.0146 15.0479ZM65.5188 14.7413L66.412 15.1909L66.6587 14.701L65.7654 14.2513L64.8722 13.8017L64.6256 14.2917L65.5188 14.7413ZM65.7654 14.2513L66.6811 14.6533L66.8925 14.1718L65.9768 13.7699L65.0612 13.3679L64.8498 13.8494L65.7654 14.2513ZM65.9768 13.7699L66.8899 14.1777L67.104 13.6983L66.1909 13.2905L65.2778 12.8828L65.0637 13.3621L65.9768 13.7699ZM66.1909 13.2905L67.0418 13.8159L67.3287 13.3511L66.4778 12.8258L65.6269 12.3004L65.34 12.7652L66.1909 13.2905ZM66.4778 12.8258L67.4607 13.01L67.5583 12.4894L66.5754 12.3052L65.5925 12.121L65.4949 12.6416L66.4778 12.8258ZM66.5754 12.3052L67.5686 12.1884L67.5043 11.6417L66.5111 11.7585L65.518 11.8753L65.5822 12.422L66.5754 12.3052ZM66.5111 11.7585L67.5049 11.8698L67.5628 11.3526L66.569 11.2414L65.5752 11.1301L65.5173 11.6472L66.5111 11.7585ZM66.569 11.2414L67.5517 11.4267L67.6481 10.9156L66.6654 10.7303L65.6827 10.5449L65.5863 11.0561L66.569 11.2414ZM66.6654 10.7303L67.6633 10.7955L67.6973 10.2756L66.6994 10.2104L65.7015 10.1451L65.6675 10.665L66.6654 10.7303ZM66.6994 10.2104L67.6821 10.0252L67.5815 9.49135L66.5988 9.67654L65.6161 9.86172L65.7167 10.3955L66.6994 10.2104ZM66.5988 9.67654L67.3774 10.3041L67.7653 9.82275L66.9868 9.19518L66.2082 8.56762L65.8202 9.04897L66.5988 9.67654ZM66.9868 9.19518L67.9837 9.27383L68.0246 8.75465L67.0277 8.676L66.0308 8.59736L65.9899 9.11654L66.9868 9.19518ZM67.0277 8.676L67.9834 8.38151L67.8173 7.84252L66.8616 8.13701L65.906 8.4315L66.0721 8.9705L67.0277 8.676ZM66.8616 8.13701L67.8301 8.38633L67.9613 7.87663L66.9929 7.62731L66.0245 7.37799L65.8932 7.88769L66.8616 8.13701ZM66.9929 7.62731L67.9914 7.68151L68.0196 7.16153L67.0211 7.10734L66.0226 7.05314L65.9943 7.57312L66.9929 7.62731ZM67.0211 7.10734L68.0038 7.29247L68.1004 6.77966L67.1177 6.59452L66.135 6.40939L66.0384 6.9222L67.0211 7.10734ZM67.1177 6.59452L68.0247 7.01557L68.2544 6.52089L67.3473 6.09985L66.4403 5.6788L66.2107 6.17348L67.1177 6.59452ZM67.3473 6.09985L68.3089 5.82544L68.1534 5.28025L67.1917 5.55465L66.2301 5.82906L66.3857 6.37425L67.3473 6.09985ZM67.1917 5.55465L67.9848 6.16381L68.3546 5.6824L67.5615 5.07324L66.7685 4.46408L66.3987 4.9455L67.1917 5.55465ZM67.5615 5.07324L66.5639 5.14199L66.6064 5.75878L67.604 5.69003L68.6017 5.62127L68.5592 5.00449L67.5615 5.07324ZM67.604 5.69003L66.6711 6.05004L66.8571 6.53212L67.7901 6.1721L68.723 5.81209L68.537 5.33001L67.604 5.69003ZM67.7901 6.1721L67.0884 6.88464L67.4882 7.27828L68.1898 6.56574L68.8915 5.8532L68.4917 5.45956L67.7901 6.1721ZM68.1898 6.56574L67.25 6.90745L67.4284 7.39807L68.3682 7.05635L69.308 6.71463L69.1296 6.22402L68.1898 6.56574ZM68.3682 7.05635L67.5461 7.62567L67.8507 8.06553L68.6728 7.49621L69.4949 6.92689L69.1903 6.48703L68.3682 7.05635ZM68.6728 7.49621L67.7622 7.90952L67.9779 8.38461L68.8885 7.97129L69.799 7.55798L69.5834 7.0829L68.6728 7.49621ZM68.8885 7.97129L67.9025 8.1384L67.9913 8.66203L68.9772 8.49492L69.9631 8.32782L69.8744 7.80419L68.8885 7.97129ZM68.9772 8.49492L67.9808 8.57908L68.0263 9.11878L69.0228 9.03462L70.0192 8.95046L69.9737 8.41076L68.9772 8.49492ZM69.0228 9.03462L68.1552 9.53198L68.4171 9.98878L69.2847 9.49141L70.1522 8.99405L69.8903 8.53725L69.0228 9.03462ZM69.2847 9.49141L68.2856 9.44816L68.2611 10.0153L69.2601 10.0586L70.2592 10.1018L70.2837 9.53467L69.2847 9.49141ZM69.2601 10.0586L68.6983 10.8859L69.219 11.2394L69.7808 10.4121L70.3425 9.58481L69.8219 9.23128L69.2601 10.0586ZM69.7808 10.4121L68.7988 10.6012L68.8966 11.1091L69.8786 10.92L70.8605 10.7309L70.7627 10.223L69.7808 10.4121ZM69.8786 10.92L69.3524 11.7704L69.8321 12.0671L70.3582 11.2167L70.8843 10.3663L70.4047 10.0696L69.8786 10.92ZM70.3582 11.2167L70.8229 12.1022L71.3166 11.843L70.8519 10.9576L70.3872 10.0721L69.8935 10.3312L70.3582 11.2167ZM70.8519 10.9576L71.633 11.5819L71.9762 11.1526L71.1951 10.5282L70.414 9.90381L70.0708 10.3332L70.8519 10.9576ZM71.1951 10.5282L71.5513 11.4626L72.055 11.2706L71.6988 10.3362L71.3426 9.40176L70.8389 9.59377L71.1951 10.5282ZM71.6988 10.3362L72.4269 11.0217L72.7884 10.6378L72.0603 9.95226L71.3322 9.26677L70.9707 9.65068L71.6988 10.3362ZM72.0603 9.95226L72.7333 10.6919L73.1188 10.3411L72.4457 9.60149L71.7727 8.8619L71.3872 9.21267L72.0603 9.95226ZM72.4457 9.60149L72.9708 10.4525L73.4172 10.1771L72.892 9.3261L72.3669 8.47507L71.9206 8.75047L72.4457 9.60149ZM72.892 9.3261L73.2788 10.2483L73.7786 10.0387L73.3918 9.11648L73.0051 8.1943L72.5053 8.40391L72.892 9.3261ZM73.3918 9.11648L74.1371 9.78328L74.4881 9.39095L73.7429 8.72416L72.9976 8.05736L72.6466 8.44968L73.3918 9.11648ZM73.7429 8.72416L74.4674 9.41334L74.8289 9.03328L74.1043 8.3441L73.3798 7.65492L73.0183 8.03497L73.7429 8.72416ZM74.1043 8.3441L74.9732 8.83922L75.2515 8.35086L74.3826 7.85574L73.5138 7.36062L73.2355 7.84898L74.1043 8.3441ZM74.3826 7.85574L74.7871 8.77029L75.2786 8.55291L74.8742 7.63836L74.4697 6.7238L73.9782 6.94119L74.3826 7.85574ZM74.8742 7.63836L75.206 8.58169L75.7176 8.40175L75.3857 7.45841L75.0539 6.51507L74.5423 6.69502L74.8742 7.63836ZM75.3857 7.45841L75.7472 8.3908L76.2315 8.20305L75.87 7.27066L75.5086 6.33827L75.0243 6.52602L75.3857 7.45841ZM75.87 7.27066L76.6315 7.91885L76.9882 7.49976L76.2268 6.85158L75.4653 6.20339L75.1086 6.62247L75.87 7.27066ZM76.2268 6.85158L76.0858 7.84159L76.5793 7.91185L76.7203 6.92184L76.8612 5.93182L76.3677 5.86156L76.2268 6.85158ZM76.7203 6.92184L75.966 7.5784L76.3554 8.02579L77.1097 7.36923L77.864 6.71267L77.4746 6.26528L76.7203 6.92184ZM77.1097 7.36923L76.2333 6.88777L75.9265 7.44628L76.8029 7.92774L77.6794 8.4092L77.9862 7.85069L77.1097 7.36923ZM76.8029 7.92774L75.8077 8.02497L75.8581 8.54115L76.8533 8.44392L77.8486 8.34669L77.7982 7.83051L76.8029 7.92774ZM76.8533 8.44392L76.0509 9.04069L76.4239 9.54211L77.2263 8.94534L78.0287 8.34856L77.6558 7.84714L76.8533 8.44392ZM77.2263 8.94534L76.2704 8.65153L76.1078 9.18038L77.0637 9.47418L78.0196 9.76799L78.1821 9.23914L77.2263 8.94534ZM77.0637 9.47418L76.095 9.72246L76.2267 10.2361L77.1954 9.98778L78.164 9.73951L78.0324 9.22591L77.0637 9.47418ZM77.1954 9.98778L76.214 9.7955L76.1109 10.3219L77.0922 10.5142L78.0735 10.7065L78.1767 10.1801L77.1954 9.98778ZM77.0922 10.5142L76.0968 10.4184L76.0461 10.9451L77.0415 11.0409L78.0369 11.1367L78.0876 10.61L77.0922 10.5142ZM77.0415 11.0409L76.0886 11.3442L76.2506 11.8531L77.2035 11.5498L78.1564 11.2464L77.9944 10.7376L77.0415 11.0409ZM77.2035 11.5498L76.7089 12.4189L77.1308 12.659L77.6254 11.7899L78.12 10.9207L77.6981 10.6806L77.2035 11.5498ZM77.6254 11.7899L77.9305 12.7422L78.4503 12.5757L78.1453 11.6234L77.8402 10.671L77.3204 10.8375L77.6254 11.7899ZM78.1453 11.6234L78.9287 12.2448L79.2663 11.8192L78.4829 11.1977L77.6995 10.5762L77.3618 11.0019L78.1453 11.6234ZM78.4829 11.1977L78.8572 12.125L79.3599 11.9221L78.9856 10.9948L78.6112 10.0675L78.1086 10.2704L78.4829 11.1977ZM78.9856 10.9948L79.8505 11.4967L80.1303 11.0145L79.2654 10.5126L78.4005 10.0106L78.1207 10.4929L78.9856 10.9948ZM79.2654 10.5126L79.8769 11.3038L80.2876 10.9864L79.6761 10.1952L79.0646 9.40391L78.6539 9.7213L79.2654 10.5126ZM79.6761 10.1952L79.9229 11.1642L80.486 11.0209L80.2392 10.0518L79.9925 9.08271L79.4294 9.22609L79.6761 10.1952ZM80.2392 10.0518L81.2171 10.2607L81.3531 9.62449L80.3752 9.41555L79.3972 9.2066L79.2613 9.84284L80.2392 10.0518ZM80.3752 9.41555L81.0498 10.1537L81.4329 9.80354L80.7583 9.06539L80.0837 8.32723L79.7005 8.67739L80.3752 9.41555ZM80.7583 9.06539L81.3465 9.87406L81.769 9.56677L81.1807 8.7581L80.5925 7.94942L80.17 8.25671L80.7583 9.06539ZM81.1807 8.7581L81.5169 9.69991L82.0449 9.51146L81.7087 8.56965L81.3726 7.62784L80.8446 7.81629L81.1807 8.7581ZM81.7087 8.56965L82.1857 9.44854L82.6517 9.19566L82.1746 8.31677L81.6976 7.43788L81.2317 7.69076L81.7087 8.56965ZM82.1746 8.31677L83.114 8.65966L83.321 8.09272L82.3816 7.74983L81.4422 7.40694L81.2353 7.97388L82.1746 8.31677ZM82.3816 7.74983L82.4501 8.74748L83.057 8.70578L82.9885 7.70813L82.9199 6.71048L82.313 6.75218L82.3816 7.74983ZM82.9885 7.70813L83.7815 8.31723L84.1215 7.87458L83.3284 7.26548L82.5353 6.65637L82.1954 7.09902L82.9885 7.70813ZM83.3284 7.26548L83.0975 8.23845L83.5953 8.35659L83.8262 7.38361L84.0571 6.41064L83.5593 6.2925L83.3284 7.26548ZM83.8262 7.38361L82.883 7.71589L83.052 8.19547L83.9952 7.8632L84.9384 7.53092L84.7694 7.05134L83.8262 7.38361ZM83.9952 7.8632L83.0288 8.12013L83.1576 8.60469L84.124 8.34775L85.0904 8.09082L84.9616 7.60627L83.9952 7.8632ZM84.124 8.34775L83.2462 8.82676L83.5024 9.29635L84.3802 8.81735L85.2581 8.33834L85.0018 7.86875L84.124 8.34775ZM84.3802 8.81735L83.3842 8.90595L83.4306 9.42795L84.4267 9.33935L85.4228 9.25075L85.3763 8.72875L84.3802 8.81735ZM84.4267 9.33935L83.48 9.66165L83.6493 10.1586L84.5959 9.83633L85.5425 9.51403L85.3733 9.01705L84.4267 9.33935ZM84.5959 9.83633L83.6126 10.0186L83.7138 10.5641L84.697 10.3818L85.6803 10.1996L85.5791 9.65407L84.5959 9.83633ZM84.697 10.3818L84.168 11.2304L84.6537 11.5333L85.1827 10.6847L85.7118 9.83609L85.2261 9.53326L84.697 10.3818ZM85.1827 10.6847L85.4268 11.6544L85.9402 11.5252L85.6962 10.5555L85.4522 9.5857L84.9387 9.71491L85.1827 10.6847ZM85.6962 10.5555L86.2786 11.3684L86.7047 11.0631L86.1223 10.2502L85.5399 9.43727L85.1138 9.74254L85.6962 10.5555ZM86.1223 10.2502L86.964 10.7901L87.257 10.3335L86.4152 9.79354L85.5735 9.25361L85.2806 9.71027L86.1223 10.2502ZM86.4152 9.79354L87.1931 10.422L87.5294 10.0057L86.7515 9.37731L85.9736 8.74888L85.6374 9.16511L86.4152 9.79354ZM86.7515 9.37731L86.9174 10.3635L87.5038 10.2648L87.3379 9.27867L87.172 8.29252L86.5856 8.39117L86.7515 9.37731ZM87.3379 9.27867L88.0808 9.94809L88.3672 9.63031L87.6243 8.96088L86.8814 8.29145L86.5951 8.60924L87.3379 9.27867ZM87.6243 8.96088L86.8199 9.5549L86.8274 9.56516L87.6319 8.97114L88.4363 8.37712L88.4288 8.36685L87.6243 8.96088Z" fill="#CCCCCC"/>
</g>
<use xlink:href="#Repeat%20group%201_inner" transform="translate(86.7133)"/>
<use xlink:href="#Repeat%20group%201_inner" transform="translate(173.427)"/>
</svg>
